<svg width="520" height="980" viewBox="0 0 520 980" fill="none" xmlns="http://www.w3.org/2000/svg">
  <g opacity="0.92">
    <path d="M314 934C261 780 257 647 302 522C344 405 355 287 318 128C310 93 305 63 305 31" stroke="#4F5A3E" stroke-width="7" stroke-linecap="round"/>
    <path d="M305 872C229 850 173 801 132 724C224 723 284 767 305 872Z" fill="#687354"/>
    <path d="M316 809C386 771 434 712 463 632C382 641 334 700 316 809Z" fill="#687354"/>
    <path d="M292 743C213 716 154 664 112 584C204 587 266 641 292 743Z" fill="#687354"/>
    <path d="M326 678C400 636 448 574 471 491C390 505 340 568 326 678Z" fill="#687354"/>
    <path d="M286 616C203 585 143 531 103 448C198 454 261 512 286 616Z" fill="#687354"/>
    <path d="M321 552C392 507 435 446 451 368C374 386 331 447 321 552Z" fill="#687354"/>
    <path d="M282 491C202 458 144 405 108 329C196 337 257 391 282 491Z" fill="#687354"/>
    <path d="M310 425C374 378 410 319 421 248C352 268 315 326 310 425Z" fill="#687354"/>
    <path d="M281 365C209 333 158 283 130 215C207 224 260 275 281 365Z" fill="#687354"/>
    <path d="M303 295C355 251 385 198 390 136C331 158 303 211 303 295Z" fill="#687354"/>
    <path d="M287 230C229 200 190 158 170 103C231 115 272 158 287 230Z" fill="#687354"/>
    <path d="M299 158C338 119 359 76 360 27C314 47 295 90 299 158Z" fill="#687354"/>
    <ellipse cx="336" cy="752" rx="29" ry="36" transform="rotate(22 336 752)" fill="#C89B6A"/>
    <ellipse cx="247" cy="686" rx="24" ry="31" transform="rotate(-31 247 686)" fill="#C89B6A"/>
    <ellipse cx="347" cy="604" rx="22" ry="29" transform="rotate(27 347 604)" fill="#C89B6A"/>
    <ellipse cx="256" cy="532" rx="20" ry="27" transform="rotate(-32 256 532)" fill="#C89B6A"/>
    <ellipse cx="337" cy="456" rx="18" ry="25" transform="rotate(29 337 456)" fill="#C89B6A"/>
    <ellipse cx="266" cy="386" rx="17" ry="23" transform="rotate(-28 266 386)" fill="#C89B6A"/>
  </g>
</svg>
